<?xml version="1.0" encoding="utf-8"?>
<svg version="1.1" id="Logo" xmlns="http://www.w3.org/2000/svg" xmlns:xlink="http://www.w3.org/1999/xlink" x="0px" y="0px"
	 viewBox="0 0 512 512" style="enable-background:new 0 0 512 512;" xml:space="preserve">
<style type="text/css">
	.st0{fill:#FFFFFF;}
</style>
<path class="st0" d="M331.12,230.05c-4.61,0-8.61,1.27-12,3.82c-3.4,2.54-5.82,5.76-7.27,9.63l-32.72,80.71
	c-3.15,8.97-5.82,17.69-8,26.18c-2.18,8.49-4.24,16.97-6.18,25.45c-1.94-8.48-4-16.96-6.18-25.45c-2.18-8.48-4.73-17.21-7.63-26.18
	L157.71,87.18c-1.22-3.64-3.52-6.78-6.91-9.45c-3.4-2.66-7.76-4-13.09-4H85L235.14,442h58.17l88.34-211.95H331.12z"/>
<path class="st0" d="M423.74,98.65c-2.54-5.69-5.94-10.66-10.18-14.91c-4.24-4.24-9.21-7.57-14.91-10c-5.7-2.42-11.7-3.64-18-3.64
	c-6.31,0-12.18,1.22-17.63,3.64c-5.45,2.43-10.24,5.76-14.36,10c-4.12,4.24-7.4,9.21-9.82,14.91c-2.43,5.7-3.64,11.7-3.64,18
	c0,6.31,1.21,12.18,3.64,17.63c2.42,5.45,5.69,10.3,9.82,14.54c4.12,4.24,8.91,7.58,14.36,10c5.45,2.43,11.33,3.64,17.63,3.64
	c6.3,0,12.3-1.21,18-3.64c5.69-2.42,10.66-5.75,14.91-10c4.24-4.24,7.63-9.09,10.18-14.54c2.54-5.45,3.82-11.33,3.82-17.63
	C427.56,110.35,426.29,104.35,423.74,98.65z"/>
</svg>
